<svg width="46" height="46" viewBox="0 0 46 46" fill="none" xmlns="http://www.w3.org/2000/svg">
<g clip-path="url(#clip0_4013_297)">
<path d="M46 23C46 10.2974 35.7025 0 23 0C10.2975 0 0 10.2974 0 23C0 34.48 8.41077 43.9951 19.4062 45.7205V29.6484H13.5664V23H19.4062V17.9328C19.4062 12.1684 22.84 8.98438 28.0937 8.98438C30.6101 8.98438 33.2422 9.43359 33.2422 9.43359V15.0938H30.3419C27.4848 15.0938 26.5938 16.8667 26.5938 18.6856V23H32.9727L31.9529 29.6484H26.5938V45.7205C37.5892 43.9951 46 34.48 46 23Z" fill="#1877F2"/>
<path d="M31.9529 29.6484L32.9727 23H26.5938V18.6856C26.5938 16.8667 27.4848 15.0938 30.3419 15.0938H33.2422V9.43359C33.2422 9.43359 30.6101 8.98438 28.0937 8.98438C22.84 8.98438 19.4062 12.1684 19.4062 17.9328V23H13.5664V29.6484H19.4062V45.7205C21.7876 46.0932 24.2124 46.0932 26.5938 45.7205V29.6484H31.9529Z" fill="white"/>
</g>
<defs>
<clipPath id="clip0_4013_297">
<rect width="46" height="46" fill="white"/>
</clipPath>
</defs>
</svg>
